<svg width="1440" height="922" viewBox="0 0 1440 922" fill="none" xmlns="http://www.w3.org/2000/svg">
<g filter="url(#filter0_di_10_3612)">
<path d="M1049.11 640.851L729.051 856H0V832.17V608.511V476.766V384.851L574.613 269.106C574.613 269.106 714.893 238.607 798.281 214.638C844.531 201.344 872.631 194.805 913.31 178.553C932.201 171.006 943.688 166.985 959.109 158.128C965.365 154.534 968.795 152.475 974.02 148.596C979.207 144.745 982.509 142.603 985.736 138.383C987.721 135.787 988.645 134.282 989.464 131.574C990.5 128.146 990.726 126.138 989.464 122.723C988.348 119.705 986.98 118.041 984.138 115.234C980.026 111.173 976.336 109.129 969.76 105.702C957.78 99.4594 947.901 97.1187 931.949 92.766C900.376 84.1509 877.767 83.2214 841.95 78.4681C794.85 72.2174 767.071 70.818 718.932 66.2128C675.716 62.0785 608.075 56 608.075 56H691.151L852.6 68.7334L1015.56 81.4668L1099.17 88C1099.17 88 1170.71 97.0094 1213.66 105.702C1248.76 112.805 1299.94 126.809 1299.94 126.809C1299.94 126.809 1348.18 141.617 1371.83 154.043C1384.19 160.535 1400.05 171.745 1400.05 171.745C1400.05 171.745 1410.71 179.866 1416.03 185.362C1422.75 192.309 1425.24 196.438 1429.34 203.745C1433.76 211.61 1435.25 216.133 1437.33 224.17C1439.26 231.583 1440.07 235.776 1439.99 243.234C1439.92 250.161 1438.83 254.038 1437.33 260.936C1434.54 273.779 1431.87 280.951 1426.15 293.617C1414.36 319.723 1381.42 358.979 1381.42 358.979L1311.65 430.468L1237.1 496.511L1049.11 640.851Z" fill="url(#paint0_linear_10_3612)" fill-opacity="0.5" shape-rendering="crispEdges"/>
<path d="M691.151 56H608.075C608.075 56 675.716 62.0785 718.932 66.2128C767.071 70.818 794.85 72.2174 841.95 78.4681C877.767 83.2214 900.376 84.1509 931.949 92.766C947.901 97.1187 957.78 99.4594 969.76 105.702C976.336 109.129 980.026 111.173 984.138 115.234C986.98 118.041 988.348 119.705 989.464 122.723C990.726 126.138 990.5 128.146 989.464 131.574C988.645 134.282 987.721 135.787 985.736 138.383C982.509 142.603 979.207 144.745 974.02 148.596C968.795 152.475 965.365 154.534 959.109 158.128C943.688 166.985 932.201 171.006 913.31 178.553C872.631 194.805 844.531 201.344 798.281 214.638C714.893 238.607 574.613 269.106 574.613 269.106L0 384.851V476.766M691.151 56L852.6 68.7334M691.151 56C691.151 56 792.439 66.3432 856.861 75.0638C903.13 81.3271 929.462 84.5636 974.02 92.766C990.422 95.7854 1000.34 96.953 1015.56 100.936C1029.46 104.574 1037.48 106.742 1048.58 111.83C1056.48 115.454 1060.67 117.686 1066.15 122.043C1069.06 124.351 1070.46 125.707 1072.54 128.17C1074.3 130.255 1075.24 131.445 1076.27 133.617C1077.84 136.939 1077.69 142.275 1077.69 142.275C1077.69 142.275 1077.03 146.137 1076.27 148.596C1073.9 156.202 1071.83 160.542 1065.08 167.66C1052.9 180.522 1015.56 197.667 1015.56 197.667C1015.56 197.667 946.377 226.742 898.399 244.596C783.476 287.361 703.51 303.03 574.613 337.872C356.788 396.753 0 476.766 0 476.766M0 832.17C0 841.476 0 856 0 856H729.051L1049.11 640.851L1237.1 496.511L1311.65 430.468L1381.42 358.979C1381.42 358.979 1414.36 319.723 1426.15 293.617C1431.87 280.951 1434.54 273.779 1437.33 260.936C1438.83 254.038 1439.92 250.161 1439.99 243.234C1440.07 235.776 1439.26 231.583 1437.33 224.17C1435.25 216.133 1433.76 211.61 1429.34 203.745C1425.24 196.438 1422.75 192.309 1416.03 185.362C1410.71 179.866 1400.05 171.745 1400.05 171.745C1400.05 171.745 1384.19 160.535 1371.83 154.043C1348.18 141.617 1299.94 126.809 1299.94 126.809C1299.94 126.809 1248.76 112.805 1213.66 105.702C1170.71 97.0094 1099.17 88 1099.17 88L1015.56 81.4668M0 832.17C374.555 675.296 950.766 430.468 950.766 430.468C950.766 430.468 1071.92 375.95 1134.32 337.872C1176.97 311.842 1202.39 297.42 1236.03 269.106C1244.77 261.749 1249.83 257.643 1257.33 250.043C1264.55 242.727 1268.3 238.555 1273.84 230.979C1279.02 223.897 1281.43 219.852 1285.02 212.596C1288.42 205.738 1290.84 201.886 1291.95 194.894C1293.29 186.393 1292.97 181.481 1289.29 173.106C1286.65 167.124 1284.46 163.783 1279.17 158.128C1273.97 152.569 1270.17 149.57 1262.66 144.511C1248.34 134.861 1237.66 129.936 1216.86 122.723C1201.56 117.419 1174.26 111.149 1174.26 111.149L1114.08 98.2128L1015.56 81.4668M0 832.17C0 744.826 0 608.511 0 608.511M1015.56 81.4668L852.6 68.7334M0 608.511C0 608.511 262.274 528.418 429.762 476.766C535.549 444.142 597.721 427.448 700.293 393.021C810.96 355.878 873.964 335.164 974.02 292.936C1007.26 278.909 1029.28 270.395 1060.38 255.51C1084.73 243.855 1096.61 238.408 1117.27 225.532C1128.81 218.342 1134.97 214.186 1144.43 206.468C1152.06 200.246 1156.13 196.684 1162.01 190.128C1167.15 184.393 1170.33 181.164 1173.19 175.149C1175.19 170.947 1176.39 164.255 1176.39 164.255C1176.39 164.255 1177.9 157.567 1176.39 153.362C1175.21 150.089 1174.57 147.893 1172.3 144.725C1170 141.509 1167.79 140.111 1164.67 137.021C1159.47 131.872 1155.29 129.159 1147.1 124.766C1138.13 119.958 1131.73 117.71 1120.47 113.872C1106.82 109.221 1097.89 107.321 1082.66 103.66C1059.49 98.0883 1045.4 95.8169 1020.88 91.4043C957.402 79.9781 852.6 68.7334 852.6 68.7334M0 608.511V476.766" stroke="url(#paint1_linear_10_3612)" shape-rendering="crispEdges"/>
</g>
<defs>
<filter id="filter0_di_10_3612" x="-41.1" y="0.900002" width="1560.2" height="920.2" filterUnits="userSpaceOnUse" color-interpolation-filters="sRGB">
<feFlood flood-opacity="0" result="BackgroundImageFix"/>
<feColorMatrix in="SourceAlpha" type="matrix" values="0 0 0 0 0 0 0 0 0 0 0 0 0 0 0 0 0 0 127 0" result="hardAlpha"/>
<feOffset dx="19" dy="5"/>
<feGaussianBlur stdDeviation="29.8"/>
<feComposite in2="hardAlpha" operator="out"/>
<feColorMatrix type="matrix" values="0 0 0 0 0.000362651 0 0 0 0 0.000362651 0 0 0 0 0.000362651 0 0 0 0.3 0"/>
<feBlend mode="normal" in2="BackgroundImageFix" result="effect1_dropShadow_10_3612"/>
<feBlend mode="normal" in="SourceGraphic" in2="effect1_dropShadow_10_3612" result="shape"/>
<feColorMatrix in="SourceAlpha" type="matrix" values="0 0 0 0 0 0 0 0 0 0 0 0 0 0 0 0 0 0 127 0" result="hardAlpha"/>
<feOffset dx="10" dy="17"/>
<feGaussianBlur stdDeviation="6.55"/>
<feComposite in2="hardAlpha" operator="arithmetic" k2="-1" k3="1"/>
<feColorMatrix type="matrix" values="0 0 0 0 0 0 0 0 0 0 0 0 0 0 0 0 0 0 0.25 0"/>
<feBlend mode="normal" in2="shape" result="effect2_innerShadow_10_3612"/>
</filter>
<linearGradient id="paint0_linear_10_3612" x1="719.997" y1="56" x2="719.997" y2="856" gradientUnits="userSpaceOnUse">
<stop stop-color="#F29763"/>
<stop offset="1" stop-color="#773445"/>
</linearGradient>
<linearGradient id="paint1_linear_10_3612" x1="149.541" y1="-612.305" x2="4915.98" y2="-903.186" gradientUnits="userSpaceOnUse">
<stop offset="0.00501099" stop-color="white"/>
<stop offset="1" stop-color="#F29763"/>
</linearGradient>
</defs>
</svg>
